HIERARCHY
ROOT Hips
{
	OFFSET -14.64140 90.27770 -84.91600
	CHANNELS 6 Xposition Yposition Zposition Zrotation Xrotation Yrotation
	JOINT Spine
	{
		OFFSET 0.00000 13.20850 -1.60436
		CHANNELS 3 Zrotation Xrotation Yrotation
		JOINT Spine1
		{
			OFFSET 0.00000 8.61716 0.00000
			CHANNELS 3 Zrotation Xrotation Yrotation
			JOINT Spine2
			{
				OFFSET 0.00000 8.61717 0.00000
				CHANNELS 3 Zrotation Xrotation Yrotation
				JOINT Spine3
				{
					OFFSET 0.00000 8.61717 0.00000
					CHANNELS 3 Zrotation Xrotation Yrotation
					JOINT Neck
					{
						OFFSET 0.00000 11.07920 1.10792
						CHANNELS 3 Zrotation Xrotation Yrotation
						JOINT Neck1
						{
							OFFSET 0.00000 7.08032 0.00000
							CHANNELS 3 Zrotation Xrotation Yrotation
							JOINT Head
							{
								OFFSET 0.00000 7.08031 0.00000
								CHANNELS 3 Zrotation Xrotation Yrotation
								End site
								{
									OFFSET 0.00000 0.00000 0.00000
								}
							}
						}
					}
					JOINT RightShoulder
					{
						OFFSET -0.01000 7.91373 5.19711
						CHANNELS 3 Zrotation Xrotation Yrotation
						JOINT RightArm
						{
							OFFSET -18.41580 0.00000 0.00000
							CHANNELS 3 Zrotation Xrotation Yrotation
							JOINT RightForeArm
							{
								OFFSET -29.11090 0.00000 0.00000
								CHANNELS 3 Zrotation Xrotation Yrotation
								JOINT RightHand
								{
									OFFSET -24.65040 0.00000 0.00000
									CHANNELS 3 Zrotation Xrotation Yrotation
									JOINT RightHandThumb1
									{
										OFFSET -5.35114 -0.85590 3.97906
										CHANNELS 3 Zrotation Xrotation Yrotation
										JOINT RightHandThumb2
										{
											OFFSET -4.52789 0.00000 0.00000
											CHANNELS 3 Zrotation Xrotation Yrotation
											JOINT RightHandThumb3
											{
												OFFSET -2.46976 0.00000 0.00000
												CHANNELS 3 Zrotation Xrotation Yrotation
												End site
												{
													OFFSET 0.00000 0.00000 0.00000
												}
											}
										}
									}
									JOINT RightHandIndex1
									{
										OFFSET -14.26970 0.00000 2.88139
										CHANNELS 3 Zrotation Xrotation Yrotation
										JOINT RightHandIndex2
										{
											OFFSET -5.48836 0.00000 0.00000
											CHANNELS 3 Zrotation Xrotation Yrotation
											JOINT RightHandIndex3
											{
												OFFSET -3.01859 0.00000 0.00000
												CHANNELS 3 Zrotation Xrotation Yrotation
												End site
												{
													OFFSET 0.00000 0.00000 0.00000
												}
											}
										}
									}
									JOINT RightHandMiddle1
									{
										OFFSET -14.26970 0.00000 -0.09147
										CHANNELS 3 Zrotation Xrotation Yrotation
										JOINT RightHandMiddle2
										{
											OFFSET -6.17441 0.00000 0.00000
											CHANNELS 3 Zrotation Xrotation Yrotation
											JOINT RightHandMiddle3
											{
												OFFSET -3.56743 0.00000 0.00000
												CHANNELS 3 Zrotation Xrotation Yrotation
												End site
												{
													OFFSET 0.00000 0.00000 0.00000
												}
											}
										}
									}
									JOINT RightHandRing1
									{
										OFFSET -12.69180 0.00000 -3.06433
										CHANNELS 3 Zrotation Xrotation Yrotation
										JOINT RightHandRing2
										{
											OFFSET -5.62556 0.00000 0.00000
											CHANNELS 3 Zrotation Xrotation Yrotation
											JOINT RightHandRing3
											{
												OFFSET -3.56744 0.00000 0.00000
												CHANNELS 3 Zrotation Xrotation Yrotation
												End site
												{
													OFFSET 0.00000 0.00000 0.00000
												}
											}
										}
									}
									JOINT RightHandPinky1
									{
										OFFSET -11.11390 0.00000 -6.03719
										CHANNELS 3 Zrotation Xrotation Yrotation
										JOINT RightHandPinky2
										{
											OFFSET -4.52789 0.00000 0.00000
											CHANNELS 3 Zrotation Xrotation Yrotation
											JOINT RightHandPinky3
											{
												OFFSET -2.46976 0.00000 0.00000
												CHANNELS 3 Zrotation Xrotation Yrotation
												End site
												{
													OFFSET 0.00000 0.00000 0.00000
												}
											}
										}
									}
								}
							}
						}
					}
					JOINT LeftShoulder
					{
						OFFSET 0.01000 7.91373 5.19711
						CHANNELS 3 Zrotation Xrotation Yrotation
						JOINT LeftArm
						{
							OFFSET 18.41580 0.00000 0.00000
							CHANNELS 3 Zrotation Xrotation Yrotation
							JOINT LeftForeArm
							{
								OFFSET 29.11090 0.00000 0.00000
								CHANNELS 3 Zrotation Xrotation Yrotation
								JOINT LeftHand
								{
									OFFSET 24.65040 0.00000 0.00000
									CHANNELS 3 Zrotation Xrotation Yrotation
									JOINT LeftHandThumb1
									{
										OFFSET 5.35114 -0.85590 3.97906
										CHANNELS 3 Zrotation Xrotation Yrotation
										JOINT LeftHandThumb2
										{
											OFFSET 4.52789 0.00000 0.00000
											CHANNELS 3 Zrotation Xrotation Yrotation
											JOINT LeftHandThumb3
											{
												OFFSET 2.46977 0.00000 0.00000
												CHANNELS 3 Zrotation Xrotation Yrotation
												End site
												{
													OFFSET 0.00000 0.00000 0.00000
												}
											}
										}
									}
									JOINT LeftHandIndex1
									{
										OFFSET 14.26970 0.00000 2.88139
										CHANNELS 3 Zrotation Xrotation Yrotation
										JOINT LeftHandIndex2
										{
											OFFSET 5.48836 0.00000 0.00000
											CHANNELS 3 Zrotation Xrotation Yrotation
											JOINT LeftHandIndex3
											{
												OFFSET 3.01859 0.00000 0.00000
												CHANNELS 3 Zrotation Xrotation Yrotation
												End site
												{
													OFFSET 0.00000 0.00000 0.00000
												}
											}
										}
									}
									JOINT LeftHandMiddle1
									{
										OFFSET 14.26970 0.00000 -0.09147
										CHANNELS 3 Zrotation Xrotation Yrotation
										JOINT LeftHandMiddle2
										{
											OFFSET 6.17440 0.00000 0.00000
											CHANNELS 3 Zrotation Xrotation Yrotation
											JOINT LeftHandMiddle3
											{
												OFFSET 3.56744 0.00000 0.00000
												CHANNELS 3 Zrotation Xrotation Yrotation
												End site
												{
													OFFSET 0.00000 0.00000 0.00000
												}
											}
										}
									}
									JOINT LeftHandRing1
									{
										OFFSET 12.69180 0.00000 -3.06433
										CHANNELS 3 Zrotation Xrotation Yrotation
										JOINT LeftHandRing2
										{
											OFFSET 5.62556 0.00000 0.00000
											CHANNELS 3 Zrotation Xrotation Yrotation
											JOINT LeftHandRing3
											{
												OFFSET 3.56744 0.00000 0.00000
												CHANNELS 3 Zrotation Xrotation Yrotation
												End site
												{
													OFFSET 0.00000 0.00000 0.00000
												}
											}
										}
									}
									JOINT LeftHandPinky1
									{
										OFFSET 11.11390 0.00000 -6.03719
										CHANNELS 3 Zrotation Xrotation Yrotation
										JOINT LeftHandPinky2
										{
											OFFSET 4.52789 0.00000 0.00000
											CHANNELS 3 Zrotation Xrotation Yrotation
											JOINT LeftHandPinky3
											{
												OFFSET 2.46976 0.00000 0.00000
												CHANNELS 3 Zrotation Xrotation Yrotation
												End site
												{
													OFFSET 0.00000 0.00000 0.00000
												}
											}
										}
									}
								}
							}
						}
					}
					JOINT pCube4
					{
						OFFSET 0.00000 10.91090 1.10792
						CHANNELS 3 Zrotation Xrotation Yrotation
						End site
						{
							OFFSET 0.00000 0.00000 0.00000
						}
					}
				}
			}
		}
	}
	JOINT RightUpLeg
	{
		OFFSET -9.98441 0.00000 0.00000
		CHANNELS 3 Zrotation Xrotation Yrotation
		JOINT RightLeg
		{
			OFFSET 0.00000 -42.11790 0.00000
			CHANNELS 3 Zrotation Xrotation Yrotation
			JOINT RightFoot
			{
				OFFSET 0.00000 -45.00020 -0.00001
				CHANNELS 3 Zrotation Xrotation Yrotation
				JOINT RightForeFoot
				{
					OFFSET 0.00000 -3.74820 0.00000
					CHANNELS 3 Zrotation Xrotation Yrotation
					JOINT RightToeBase
					{
						OFFSET 0.00000 0.06325 14.43120
						CHANNELS 3 Zrotation Xrotation Yrotation
						End site
						{
							OFFSET 0.00000 0.00000 0.00000
						}
					}
				}
			}
		}
	}
	JOINT LeftUpLeg
	{
		OFFSET 9.98441 0.00000 0.00000
		CHANNELS 3 Zrotation Xrotation Yrotation
		JOINT LeftLeg
		{
			OFFSET 0.00000 -42.11800 0.00000
			CHANNELS 3 Zrotation Xrotation Yrotation
			JOINT LeftFoot
			{
				OFFSET 0.00000 -45.00070 0.00000
				CHANNELS 3 Zrotation Xrotation Yrotation
				JOINT LeftForeFoot
				{
					OFFSET 0.00000 -3.74824 0.00000
					CHANNELS 3 Zrotation Xrotation Yrotation
					JOINT LeftToeBase
					{
						OFFSET 0.00000 0.06325 14.43110
						CHANNELS 3 Zrotation Xrotation Yrotation
						End site
						{
							OFFSET 0.00000 0.00000 0.00000
						}
					}
				}
			}
		}
	}
}
MOTION
Frames: 4
Frame Time: 0.050000
0.0026602312740318665 0.0013549713918149249 -0.005695047751420432 0.021676777489556043 0.0054532689412332865 -0.024231209843784074 -4.690267345865762 0.8718065159655458 -0.49851926040910904 -0.9274381127134689 3.351528159199914 0.4049046936369771 -1.2206572914573257 -1.790834700017997 -1.23282492316944 -0.60371859355219 0.2609179780193373 -0.9283668190269664 -0.8326019005944945 12.336514046987045 1.1229640762377204 -0.08554872532329566 1.0566149444744413 0.26011917134518536 -0.46546995275174463 -12.39094133709973 0.07370590377996726 -0.6476469210995721 1.0505782888000088 -12.619788272570366 68.31039877462891 14.648440291289896 5.763566367564691 29.101328589948274 6.853836204610003 84.48078897486091 23.94926984275639 -0.3227420097195336 -5.753360868025132 4.522500485177381 -0.1602863687014361 -1.5714209669476669 0.018854024483977362 0.015941608498897704 -56.22282961018129 0.009795269281809101 -0.006538601095818935 -56.19858408591746 -38.793669161365585 0.027310882573609932 0.010979657050889425 -0.0015025967596220683 0.0026118545339130395 -0.03124588406813305 -0.047776005649754275 -0.03382685749017924 -0.01554103935015416 -36.723837684359566 -0.02610608751391982 -0.019589515783731467 0.033864391747068 0.028826133939381115 0.00045351172694482766 0.007399511993816481 -0.04143878081796312 0.04251678773207897 -19.768462915004125 -0.012062055201905208 0.04498130568124032 0.00910292134499693 0.0014444758955575177 -0.04855667072344019 0.014574274815471031 -0.0022629643833885216 -0.03878228223583901 24.072089359558777 0.030642241011887093 -0.003262402846258713 28.900849654580817 -0.006601180834030668 -0.0055010919246860045 28.840815732068407 0.021962239953299018 -0.04491122374550832 4.287008554048626 1.4048014431843208 12.877944855373315 -60.17876197676122 24.82073116040268 -21.631731479034663 2.4065975659764764 13.748656443308187 -67.11269957780193 -11.803142308995044 8.559808153584708 -6.025109666392762 -0.4366548990874207 0.07602341047653452 -8.122554939196869 -0.03965461195610823 0.013925379033529873 44.53841769894143 0.012158873231903622 0.04365844160440025 44.53514252782797 12.46171821052517 -0.009560782846190103 -0.019471493101731952 -0.025337716721333045 0.009868730510605215 -0.01231248760121503 0.025050922872418897 0.042936983723899334 -0.03388117160477994 11.147774262275972 0.02258065159373414 0.031164437932838327 0.01687294850736511 -0.01482221449619876 -0.039177607815404206 0.011706834431301827 0.04712117862004428 0.022929535008177154 4.8066638954563095 0.01137329492271384 -0.03167655845741256 -0.00462427987048452 0.015360870094911348 0.01343017617503735 0.02665427201104702 0.047145603834057484 0.04970835156470336 -5.615197316443114 -0.004582316878329632 -0.04502281854504519 -6.6895133960854976 0.021924998606821667 0.02806503428944867 -6.716883052365553 0.016166403048380434 0.00257040186044226 -0.001993275589301392 -0.0412185676436745 -0.0031784487256833116 8.032059768083199 3.4483311828350893 -19.202306829505005 0.022027986283448635 10.39916661794045 -0.005646804935262314 -5.571300210008963 -15.703028198546777 3.1487611021332715 -0.025087085786407823 -0.029259544027888662 0.0074287203016865705 0.023714420177032017 4.6657784906245166 0.0018844601990698324 12.454701466900065 -8.252768311632282 6.928228972677896 0.007061905026962955 46.41897061662053 0.013887534311891624 -4.299014986109135 -14.731718077903855 -3.860603945867583 -0.00724478603001033 -0.023053083147736603 0.034213194116298085 -0.004246182114962285 -10.773753570218398 0.006600473619152558 
-0.030850975955162497 0.023226740684847508 0.04320182950301617 -0.008613737442825729 -0.01756191985234502 -0.030692658540487302 -4.6712104006526785 0.8155160332719148 -0.5325957232147357 -0.9880870902623923 3.340295963472293 0.38731734785773314 -1.1780372869934297 -1.7907909102139221 -1.361086808547305 -0.5586404028291396 0.2796710980036856 -0.8758201129166835 -0.78026391822486 12.195987244530158 0.9568681663775053 -0.09371096737667706 1.0305663361567086 -0.0650009685683196 -0.3942842706994848 -12.43918877375728 0.0771278541461851 -0.6329044477165696 1.0521184705483062 -12.620801850475893 68.22240860201983 14.87746191565742 5.437417562676888 29.380462800975923 7.173679797994294 83.31552666271172 24.25287837365649 -0.2705837168982126 -5.7752537697209325 4.540869040693711 -0.11519220447770814 -1.5467398696852241 0.031482716935693336 -0.007722298326879636 -56.248358335349266 -0.027976470190251422 0.0030768579907484023 -56.22260843916125 -38.783676069440816 0.0029328376980759783 -0.014928587859534097 -0.0006518722851755033 -0.0328900314523249 -0.02481479698165036 -0.0016504933941640246 -0.03443816988162786 -0.009875165495467063 -36.72089817271668 0.031798451008598495 0.0123223651269221 -0.035834459643565124 -0.029148406637037858 0.03601114429153945 0.045113807317292996 -0.04467208823723932 0.015315285978836518 -19.719919885092274 0.047328679041124005 0.03760160823036885 -0.02068857066599733 -0.022116625565260513 0.049878955909679626 0.009588301768273896 0.03666239958246133 -0.008197201041904207 24.06057950765533 -0.01255563778422678 -0.03053306511788732 28.830424160125993 -0.025744874486256588 -0.022216016074734456 28.816591258715928 -0.016154932797449104 0.04873893580761545 4.125454309334265 1.4235604635776822 12.677361265988084 -60.195270986447355 25.507239236317474 -21.437671358658438 2.234748734406469 13.390344157285586 -66.1019439182921 -11.887423593603234 8.592804735172766 -5.98095466111359 -0.5224916871007712 0.018595711814628713 -8.074571744282403 -0.012985115399335402 0.011127814483831757 44.552723558090705 0.028018850419840927 0.016447496283007224 44.55637595580337 12.43826335396677 0.02177410642017094 0.037739695509076986 0.03796462414067935 -0.03160791731637988 -0.007700817431163516 -0.0231183625604719 -0.029260371899485993 0.014173880611955965 11.132982440565403 0.00833962141064243 -0.034300931638808714 -0.03261892817553508 -0.04571517106471508 0.03452274609894346 -0.03624407500914023 0.019787695988838096 0.023454261248422523 4.818801049845821 -0.008427076899601912 -0.012599158117751046 0.04378408762963531 0.005554352960459782 0.020026020817893828 -0.0011875718984161719 -0.0035546837145981123 -0.02820226141135643 -5.579851782756237 -0.03132574193986609 0.0011345075243219616 -6.717893160903634 0.007556573758293769 0.0026806936837808926 -6.750093074225059 -0.042724670470314474 0.02443436728317075 0.026514606979731726 0.017873406481900597 0.0022262028927566035 8.013611772109005 3.494566867260974 -19.206471521106938 0.03191437000902675 10.423475279862885 0.007116282239803904 -5.642196484083391 -15.618216828268759 3.2281723712611163 0.017551636752876163 0.010525300986691457 0.025713493790553803 0.026461453716578882 4.668085843220822 0.012295884288556129 12.432688723539702 -8.264246621104494 6.93086834426588 -0.025718348984341374 46.34298275109569 0.024467029613502937 -4.365045395576106 -14.748747376783191 -3.7991681617642845 -0.00189536005162065 -0.04776857162983135 -0.031940524509048315 0.019757502403725268 -10.715213109213053 0.023452064636520747 
0.02242786376946366 -0.027964133590900955 -0.03649451856714078 -0.015805311485182976 0.01501424353686563 -0.006851244196082038 -4.526830490364326 0.7579383495533788 -0.5170064674942233 -0.9004516652246174 3.2713200329030165 0.36668127232324244 -1.1461562530098006 -1.8728213713920014 -1.4316645788973192 -0.4627195039455528 0.28836744800381303 -0.9198027602156716 -0.7346740071027018 12.21193161784558 0.8488428523104208 -0.04358188763920694 0.9677887262086973 -0.13570644879668903 -0.3450768300052305 -12.446702392990616 0.10660152161004033 -0.6763839701051734 1.0103554321226833 -12.62806114197639 68.29717639012182 14.89544781719166 5.234815545382401 30.089053497933318 7.452065407870479 82.31168385822092 24.46077097800992 -0.28680191684807876 -5.701519664039747 4.51202385856657 -0.1352283825708406 -1.6255208276648738 0.010158630746323845 -0.020493867930055504 -56.22786535570782 -0.043088545912081486 -0.04729196722475844 -56.221137995172086 -38.80712578836218 0.00034731478422719885 -0.025828812467446262 0.027906838181240887 0.014807485585767123 -0.00945911380946144 -0.014807494249073704 -0.04272379191721696 0.02466919684212024 -36.6527748716859 0.008547326629907407 -0.025576365796138773 0.03424684091042944 0.03987331590474552 -0.005530594528401409 -0.04019963306465493 -0.0012391849139970945 0.04209222563276758 -19.716907529571323 -0.0002095188212997874 0.04535138231494331 -0.01774484759345291 0.010100463223397336 0.032207760054241114 -0.015613484779493534 0.0195960872183995 0.04835601158028095 24.0209003889961 0.03223269782271654 0.04697595562601501 28.83601223132429 0.012977342548812963 -0.032128928442991374 28.914955925514146 0.013572666371054592 0.01263190068272987 4.119851355657569 1.402289697670075 12.543170026910127 -60.27283697226906 25.829782494687894 -21.365888774227912 1.6519225988452082 13.006524057347624 -65.38403184558561 -11.816219070979535 8.642287854249671 -5.937484727997831 -0.4960505734188595 0.08515906869411172 -8.171850291188834 0.018981132240886642 -0.024387776940108692 44.55051736135853 0.02509905453944518 -0.03212509784727866 44.56742184111843 12.4371437138814 -0.04216467876028899 -0.010426141218937531 0.008352061155714198 0.022019730590163874 -0.046793064899806974 -0.0156909313778084 0.004488332547746915 0.01830105697240298 11.111484871486729 -0.01653282926009005 0.002104108503485253 -0.0034902244302227998 -0.03186649240590679 -0.0290172247294508 -0.007426720614570454 -0.012181243765074701 -0.01029993119458591 4.743341022059324 -0.042731830315466644 -0.0161042259430316 -0.04830532599792605 0.004086476330799105 0.007963934693226671 -0.008088423484988234 -0.040572206493854394 -0.0007763352647634978 -5.639675352259821 0.034558124187549485 0.008869449446931823 -6.713456770917614 0.004404889903001899 0.00912753282284559 -6.685832411798873 -0.023710255688876396 -0.015003903158688109 0.0027537190361942546 0.0008118478614312811 0.03770703537596224 8.01410766479047 3.5366800754572583 -19.249559850707055 0.04329230561967611 10.38337334342906 0.023848609142715686 -5.656842669714733 -15.66966267227469 3.2201550110850756 0.041224946042298934 0.008265303895568 0.0017954767414277008 -0.008735558615212458 4.7036270955377235 0.018464000519680758 12.43225526843971 -8.228159107808212 6.896595767936647 -0.018367898828357175 46.365333580142035 0.029463620298533232 -4.322290357757251 -14.738492580786017 -3.8472645755625647 -0.007101579529829417 -0.03141719967910845 -0.027451762042377474 0.013348931132261576 -10.768846240840997 -0.017664055027790167 
-0.037307571306457114 0.00505614405748883 -0.0013841684468258483 -0.009634718568315232 -0.01808502707540425 0.013313009146866193 -4.459840498412901 0.6427618677429136 -0.49308668614761986 -0.956320558456511 3.272795030926194 0.4118452289529613 -1.1546642788145143 -1.8495946605918463 -1.5746665391492565 -0.44077308328869724 0.2650237103782197 -0.9249340359035136 -0.6477777114468614 12.26094938128311 0.7683185192634981 -0.01511391812905126 1.0424405006186095 -0.13317579041370922 -0.2814653036897097 -12.38957840636408 0.05023797796834896 -0.7864214576378508 1.0793228632467324 -12.672266175185618 68.5215596272707 14.807265108762843 5.064160945133696 30.903312284404393 7.7275295974097435 81.36231484573844 24.496298435233285 -0.29443776037295444 -5.580941274101717 4.495085524986908 -0.16017400869349524 -1.6147897739537902 -0.021864663127970814 -0.016852219441181683 -56.27186901594984 -0.02448331322908153 0.007709261438638357 -56.27057928035798 -38.81564118708299 0.015786784402164473 0.048147446817687206 -0.028729478261360946 0.03401333035984766 -0.010926178268036463 -0.02372103968394032 -0.022232264007024334 0.008484526855620985 -36.672699237217955 0.0033208161034677906 0.015446469018921872 -0.017720273342939245 0.026301187529165503 0.03937305237167321 -0.03988634943416017 0.012657020036546377 0.011327234458677027 -19.74107541296523 0.018438886649714912 0.022177626888674216 -0.0449908340235078 -0.013134236386924973 0.02672908239285763 0.02854386869842086 0.03295695227300392 0.0020850668667792825 24.04085859187416 -0.02967149135830305 -0.02623096057967887 28.88210912785323 0.013631149393981865 0.01026532526148739 28.850826062682312 0.02609324424436411 0.03651100506259142 4.201375408851788 1.4290158138626432 12.452838914831942 -60.34122449622108 26.06382971509688 -21.40338213804368 0.8247214129585781 12.495305439722607 -64.85041084312735 -11.747562055276394 8.71435508947908 -6.009040529078736 -0.44541355906867086 0.1035963795134136 -8.10950692220587 0.003908213773107527 0.0177193502748037 44.58395750511967 0.000509951579956972 -0.030167184047221927 44.53977603810752 12.422729724139257 0.029855359263562507 -0.0010850097255980379 -0.015111795932145155 0.003935608791757772 0.01166298525681036 0.002994300952979389 0.04942849450944351 0.01663980536578622 11.087674681377173 -0.023837526997925386 0.033296236043005474 -0.043062983419526524 0.017984266987067822 0.034462173717384394 0.03306525276038657 -0.020749080170431797 -0.03536193263036492 4.779728187907214 -0.028133354702031377 -0.02869192192013129 0.03475485412916976 -0.031036796118835183 -0.026627867636377256 0.0441450086684664 -0.04523885924382833 -0.018901442437080695 -5.610785606536076 -0.04660421366241897 0.011170619565629387 -6.707532036833534 -0.021617119164904264 -0.026713011329543318 -6.738073811000312 -0.0301324558122782 0.037536922514952824 -0.01605879216548111 0.04143767332580266 0.014060270094783027 8.079459325395854 3.514729690794514 -19.182431675986024 -0.046362869146898626 10.345758388878856 -0.02159015774986216 -5.612736591158231 -15.640312149703183 3.2169057094402245 0.03733439817873738 -0.04930647415959336 0.0009196954724718124 -0.0011738993148062008 4.705510906069857 0.010685508332873921 12.428074237901324 -8.288068994977786 6.888235034288133 -0.017426281648451062 46.34450807789498 -0.041968535741614514 -4.300952701757353 -14.768586380034874 -3.834534309601663 -0.006815070030907685 -0.011506295741430066 -0.006558375563625995 -0.04187988853261167 -10.695632711733035 -0.023086606545835435 
